<?xml version="1.0" encoding="UTF-8"?>
<svg width="72px" height="65px" viewBox="0 0 72 65" version="1.1" xmlns="http://www.w3.org/2000/svg" xmlns:xlink="http://www.w3.org/1999/xlink">
    <!-- Generator: Sketch 42 (36781) - http://www.bohemiancoding.com/sketch -->
    <title>app-store-apple-symbol</title>
    <desc>Created with Sketch.</desc>
    <defs></defs>
    <g id="Page-1" stroke="none" stroke-width="1" fill="none" fill-rule="evenodd">
        <g id="Desktop-HD-Copy2" transform="translate(-191.000000, -1241.000000)" fill="#6543B9">
            <g id="Group" transform="translate(191.000000, 1241.000000)">
                <path d="M0,39.91 L0,30.141 C0,29.246 0.734,28.512 1.637,28.512 L18.902,28.512 L11.383,41.539 L1.637,41.539 C0.734,41.539 0,40.809 0,39.91 Z M12.297,59.918 L6.789,63.649 C6.047,64.153 5.523,63.836 5.625,62.946 L6.359,56.559 C6.465,55.668 7.184,55.305 7.965,55.75 L12.23,58.188 C13.008,58.633 13.039,59.414 12.297,59.918 Z M13.621,56.317 L9.359,53.879 C8.578,53.434 8.305,52.438 8.758,51.66 L28.5,17.434 C28.949,16.656 29.961,16.383 30.738,16.832 L35.004,19.266 C35.781,19.715 36.051,20.715 35.602,21.489 L15.859,55.719 C15.41,56.496 14.402,56.762 13.621,56.317 Z M28.648,41.539 L36.164,28.512 L40.492,28.512 L46.598,41.539 L28.648,41.539 Z M53.129,45.426 C51.426,44.574 42.922,25.047 40.742,19.949 C38.562,14.856 31.98,1.293 34.109,0.239 C35.625,-0.519 41.062,10.16 45.141,16.574 C49.211,22.985 57.727,39.516 58.773,41.399 C59.816,43.289 57.773,44.86 56.633,45.332 C55.496,45.805 54.836,46.274 53.129,45.426 Z M58.719,54.403 L56.148,50.364 C55.617,49.524 55.895,48.485 56.754,48.043 L59.203,46.789 C60.066,46.348 61.145,46.707 61.605,47.586 L63.633,51.465 C64.094,52.344 63.781,53.469 62.949,53.965 L61.199,55.008 C60.367,55.508 59.246,55.235 58.719,54.403 Z M68.172,65 C67.633,63.289 63.535,63.176 61.703,60.598 C59.863,58.028 61.383,56.707 62.023,56.094 C69.461,51.922 68.172,65 68.172,65 Z M72,39.91 C72,40.809 71.266,41.539 70.363,41.539 L61.723,41.539 C61.625,41.039 61.473,40.535 61.211,40.063 C60.988,39.664 60.418,38.582 59.625,37.074 C58.48,34.899 56.84,31.789 55.078,28.512 L70.363,28.512 C71.266,28.512 72,29.246 72,30.141 L72,39.91 Z" id="app-store-apple-symbol"></path>
            </g>
        </g>
    </g>
</svg>