<?xml version="1.0" encoding="UTF-8"?>
<svg width="65px" height="66px" viewBox="0 0 65 66" version="1.1" xmlns="http://www.w3.org/2000/svg" xmlns:xlink="http://www.w3.org/1999/xlink">
    <!-- Generator: Sketch 42 (36781) - http://www.bohemiancoding.com/sketch -->
    <title>earth-globe-with-continents-maps</title>
    <desc>Created with Sketch.</desc>
    <defs></defs>
    <g id="Page-1" stroke="none" stroke-width="1" fill="none" fill-rule="evenodd">
        <g id="Desktop-HD-Copy2" transform="translate(-772.000000, -1240.000000)" fill="#5358C5">
            <g id="Group-4" transform="translate(772.000000, 1240.000000)">
                <path d="M57.1754565,23.4616451 L57.7485143,23.8687536 L58.2787266,23.8687536 L58.2787266,22.839325 L59.958625,22.6779164 L61.5546177,23.8687536 L64.1771157,23.8687536 L64.3663498,23.7001712 C64.100351,22.8178039 63.8004329,21.9426103 63.4737364,21.0871444 L61.7652744,21.1158392 L60.8994394,20.1689085 L60.738769,18.6498736 L59.8604375,19.1251325 L59.3873524,20.9902992 L58.1180562,19.6308796 L58.0680699,18.3485775 L56.8416191,17.2904541 L56.3881715,16.834923 L54.9653458,16.834923 L55.4116525,18.1100514 L57.1272554,19.0695362 L57.4200326,19.3851798 L57.0504906,19.5734899 L57.0719133,20.5831907 L56.234642,20.9329094 L55.5241218,20.7715008 L55.0778151,20.142007 L56.234642,20.204777 L56.5488419,19.7779408 L53.9816859,18.0401076 L53.7870962,17.3048015 L52.7480942,18.2499389 L51.6876695,18.0329339 L50.0845359,20.1276596 L49.7631951,20.9544306 L48.738475,21.0458955 L47.2174618,21.0530692 L46.3052109,20.6244396 L46.0392121,18.8112823 L46.3676939,17.9486427 L47.9154854,17.6060977 L49.6025247,17.9486427 L49.8042553,17.0106791 L49.0937351,16.8420967 L49.3383111,15.3786582 L51.0324913,15.1114372 L52.2250228,13.42382 L53.4514735,13.219369 L54.5600993,13.3807777 L54.9653458,13.3807777 L54.7421925,11.7989729 L53.3961315,12.3441754 L52.9230464,11.1605119 L52.1411171,11.0493193 L51.9947285,10.242276 L52.628484,9.54283851 L54.1423563,8.94741991 L54.5333209,8.24618896 C48.7456159,3.11877395 41.1584023,0 32.8446014,0 C25.6412115,0 18.9751749,2.34759925 13.5498709,6.32004565 L15.2101317,6.30569821 L15.9420747,6.71818701 L17.3363368,7.01948317 L17.4416652,7.56647917 L19.6589168,7.65077036 L19.3589987,6.93698541 L17.3916788,6.87959566 L17.8522673,6.44558572 L17.6915969,5.92011087 L15.9135111,5.92011087 L17.8522673,4.47101981 L19.7071179,4.47101981 L20.5854494,5.67441102 L22.0296979,5.75870221 L22.9008885,4.90502975 L23.5560667,5.23322736 L22.3563943,6.41868427 C22.3563943,6.41868427 20.6907778,6.44558572 20.7746835,6.44558572 C20.8585891,6.44558572 20.9139311,7.59517404 20.9139311,7.59517404 L22.9294521,7.53957773 L23.1454646,6.99258172 L24.5397266,6.90829054 L24.700397,6.08869324 L23.8845484,5.94880574 L24.1559029,5.20632592 L24.7843027,5.01622239 L26.9658498,5.12920845 L25.7679626,6.22140703 L25.9554114,7.06969919 L27.2104258,7.26518301 L27.1336611,5.73180077 L28.3333334,5.10051357 L30.4595385,4.84943344 L33.5497659,6.22140703 L33.5497659,7.40507051 L34.526285,7.65077036 L34.0371328,8.58335371 L32.6428708,8.58335371 L32.2322686,9.64685742 L29.0509946,8.89720388 L31.5556677,7.55930545 L30.6005714,6.74688188 L28.4458027,7.01948317 L28.2565687,7.21676041 L28.2494278,7.21676041 L28.2155085,7.25800929 L27.5942496,7.91081764 L26.5695294,7.9933154 L26.6534351,8.50623624 L27.0086952,8.66047118 L26.9944134,8.82726013 L26.1571421,8.94741991 L26.0946591,9.42985245 L25.3002332,9.47289476 L25.1538446,8.50623624 L23.723878,8.94741991 L20.794321,10.663732 L21.1228027,11.8742969 L21.9386513,12.4141192 L23.5774894,12.6382979 L23.5774894,14.5088449 L24.337996,14.3904785 L25.0342344,12.9252466 L26.77126,12.3728703 L26.77126,10.1310834 L27.7406382,9.39577729 L30.0846409,9.94815358 L29.9168295,11.4331132 L30.5434441,11.4331132 L32.2661879,10.5866145 L32.3500936,12.534279 L33.605108,13.2964865 L33.5497659,14.4532486 L32.3500936,14.8603571 L32.4339992,15.244151 L33.8782477,15.904133 L33.849684,16.7022092 L33.431941,16.7362843 C33.431941,16.7237303 33.4248001,16.7165566 33.4248001,16.7165566 L31.5967279,16.1480395 L31.5199631,15.5597946 L32.0573164,15.1885547 L32.0573164,14.6559061 L31.4789029,14.5088449 L31.3396552,15.0074183 L30.3345726,15.1616532 L30.2310294,15.1257846 L30.2310294,15.1813809 L29.881125,15.231597 L29.5954887,14.6559061 L29.2687922,14.5088449 L28.5564868,14.5088449 L28.2280051,14.7832396 L28.2280051,15.3786582 L28.8421231,15.5813157 L29.4491001,15.6656069 L29.3098525,15.7283769 L28.7582174,16.3453167 L28.5154266,16.0368468 L27.9780733,15.8969593 L26.526684,17.2689329 L26.715918,17.4231678 L24.5682903,18.6211788 L22.5456284,20.7302519 L22.4063807,21.6753893 L20.3837188,23.0079074 L19.3786362,24.0229885 L19.4911054,26.0549442 L18.0968434,25.4021358 L18.1111252,24.2112986 L14.2336127,24.2184723 L12.2252326,25.2353469 L11.3522568,26.8530203 L11.0112785,28.1281487 L11.5754101,29.3674085 L13.1517653,29.5646857 L15.668935,27.8752751 L15.8849474,28.7163936 L15.1190852,30.1672781 L17.0292778,30.4954757 L17.2238675,33.4671884 L19.8463656,33.9155458 L21.5066264,31.9804353 L23.5292883,32.3947175 L24.2398085,33.3828972 L26.1785648,33.2699111 L26.2339068,32.6960137 L27.3014724,33.2143148 L28.5011447,35.106383 L30.5720078,35.1332844 L31.3396552,36.4783566 L31.4431984,38.1247249 L33.7372147,38.9999185 L36.6328525,39.0286134 L37.4826204,40.4221081 L38.7661984,40.8363903 L38.5144815,41.9913589 L37.1130785,43.7847885 L36.7024763,47.7572349 L35.4331801,48.7669357 L33.5497659,48.7113394 L32.9213661,49.8035379 L33.3890955,51.862395 L31.3396552,54.496943 L30.684477,55.7021277 L28.731439,56.647265 L27.447861,56.8445423 L27.3996599,57.3897448 L28.2994141,57.6497921 L28.1869448,58.238037 L27.385378,59.0163854 L27.8727449,59.6387055 L28.8421231,59.6674003 L28.786781,60.4170539 L28.5279231,61.1595337 L28.4458027,61.762126 L29.881125,62.9744844 L29.6936762,63.6039782 L27.7406382,63.569903 L25.794741,61.8661449 L24.2755131,59.1903481 L24.4915255,56.6060161 L23.3400543,55.0708405 L23.8077837,52.4649874 L23.1240418,52.2695035 L23.1240418,46.621994 C23.1240418,46.621994 21.2138492,45.1729029 21.10138,45.1729029 C20.9978368,45.1729029 20.0909416,44.9200293 20.0909416,44.9200293 L19.9017076,43.8565256 L17.4202424,40.730578 L17.6648185,39.6025108 L17.7469389,37.7678324 L19.4625418,36.5626478 L19.219751,34.5037907 L16.707937,34.3136871 L14.7424023,32.0647265 L13.3481403,31.6791392 L12.448386,31.5123502 L12.55907,30.6927529 L11.4165249,30.5313443 L11.4165249,30.9940491 L8.5423099,30.271297 L7.39262389,28.4993886 L7.85856807,27.6439227 L6.04656294,24.9824733 L5.73236303,23.0348088 L5.00042007,23.0348088 L5.24499613,24.926877 L6.50001052,26.8745415 L6.35897761,27.6385424 L5.29319726,27.4771338 L3.98819652,25.2353469 L3.98819652,22.62232 L2.62249807,21.962338 L2.62249807,20.0864107 C0.93367358,24.0570637 -1.13686838e-13,28.4222711 -1.13686838e-13,33.0044836 C-1.13686838e-13,51.1970327 14.7352614,66 32.8517423,66 C43.116796,66 52.3017875,61.2366512 58.3269277,53.8028858 L57.2450803,53.8028858 L57.2450803,51.6113149 L55.9900659,49.9147306 L55.9900659,47.2748023 L55.0349696,46.3153175 L54.951064,45.2213255 L56.1650182,42.8880737 L53.85672,38.8044347 L54.1280745,36.0299992 L52.0572115,35.8129942 L51.289564,35.0418195 L49.9024428,35.0418195 L49.1919226,35.7018016 L46.7372358,35.7018016 L46.6533301,35.9259803 L45.2858465,35.9259803 L42.1474179,32.3319475 L42.1759815,29.5359909 L42.691912,29.3405071 L42.8865017,28.2752099 L42.1474179,28.2752099 L41.8474998,27.1471427 L45.4750805,24.5197685 L45.4750805,22.6492215 L47.2531663,21.6628352 L47.9708275,21.732779 L49.4347134,21.732779 L50.5790437,21.1158392 L54.2619665,20.8288905 L54.2619665,22.7191652 L57.1754565,23.4616451 Z M47.9636866,11.6931605 L48.2636047,11.2304557 L49.3383111,11.006277 L49.6096656,12.3226543 L50.1880791,13.2552376 L50.5647619,13.6964213 L51.2627856,13.9690226 L50.6076073,14.7545447 L49.3383111,14.8729111 L48.3832148,14.8729111 L48.4938989,13.7394636 L49.2883248,13.5708812 L49.218701,13.0382327 L48.4796171,12.5683541 L47.9636866,12.2186354 L47.9636866,11.6931605 Z M46.1856007,13.7520176 L46.8407789,12.6956876 L47.7262514,12.4912367 L48.3617921,12.7656314 L48.2993092,13.4722426 L46.9532482,14.4317274 L46.1856007,14.4317274 L46.1856007,13.7520176 Z M28.3404743,17.8087552 L27.6567325,17.8643515 L27.692437,17.3890927 L27.999496,17.0035053 L28.4100982,17.3317029 L28.3404743,17.8087552 Z M30.7398191,16.9676367 L30.2720897,17.0035053 L30.1810431,17.4590364 L29.8186421,17.6832151 L29.2402286,17.7316377 C29.2188059,17.5989239 29.211665,17.4931116 29.211665,17.4931116 L28.9885116,17.4931116 L28.9885116,17.0035053 L29.9311114,17.0035053 L30.1185602,16.5067254 L30.495243,16.4995516 L30.920127,16.5820494 L30.7398191,16.9676367 Z" id="earth-globe-with-continents-maps"></path>
            </g>
        </g>
    </g>
</svg>