<?xml version="1.0" encoding="UTF-8"?>
<svg width="44px" height="66px" viewBox="0 0 44 66" version="1.1" xmlns="http://www.w3.org/2000/svg" xmlns:xlink="http://www.w3.org/1999/xlink">
    <!-- Generator: Sketch 42 (36781) - http://www.bohemiancoding.com/sketch -->
    <title>idea</title>
    <desc>Created with Sketch.</desc>
    <defs></defs>
    <g id="Page-1" stroke="none" stroke-width="1" fill="none" fill-rule="evenodd">
        <g id="Desktop-HD-Copy2" transform="translate(-191.000000, -1563.000000)" fill="#436CD0">
            <g id="Group" transform="translate(191.000000, 1563.000000)">
                <path d="M31.4366202,55.3366728 L31.4366202,57.8307138 C31.4366202,59.8126685 29.9814118,61.443796 28.080508,61.6997549 L27.4735534,63.9376685 C27.1234002,65.1370864 26.0175025,66 24.8044357,66 L18.7790374,66 C17.4850883,66 16.3660473,65.1370864 16.1099198,63.9376685 L15.5031337,61.6997549 C13.6160473,61.443796 12.146853,59.8126685 12.146853,57.8307138 L12.146853,55.3366728 C12.146853,54.0427237 13.1841692,52.9236826 14.5591692,52.9236826 L29.0915374,52.9236826 C30.39863,53.0185509 31.4366202,54.0565411 31.4366202,55.3366728 Z M33.3376925,45.1461703 C32.9064884,47.8553922 30.520459,49.8905944 27.7836024,49.8905944 L15.8000393,49.8905944 C12.9959492,49.8905944 10.650024,47.8954963 10.2459492,45.1461703 C9.7608236,42.0182138 8.29095534,39.0530331 6.10696331,36.7879902 C2.25173966,32.7438725 0.0947084058,27.4998315 0.00068267047,21.9865196 C-0.0935115697,9.94836091 9.57192961,0.0808823529 21.5423493,0 L21.7042825,0 C33.768728,0 43.582959,9.74632353 43.582959,21.7167433 C43.582959,27.3247549 41.3586943,32.8249234 37.4758359,36.8011336 C35.2655571,39.0799939 33.8228181,41.9642923 33.3376925,45.1461703 Z M34.0524903,33.4581648 C37.0717611,30.3578431 38.8107317,26.0847273 38.8107317,21.7035999 C38.8107317,12.3613511 31.1405571,4.77205882 21.7042825,4.77205882 L21.5693101,4.77205882 C12.2410473,4.83929228 4.70567654,12.5364277 4.77274149,21.932598 C4.83997495,26.2196998 6.53884137,30.317739 9.54496882,33.4719822 C12.402812,36.4102022 14.330171,40.306204 14.9640865,44.4182292 C15.0311514,44.9031863 15.4359002,45.1053922 15.8000393,45.1053922 L19.5341079,45.1053922 L19.5341079,31.0990962 L14.5460258,26.1116881 C13.6699688,25.2356311 13.6699688,23.8065411 14.5460258,22.9166667 C15.4220828,22.0406097 16.8511729,22.0406097 17.7410473,22.9166667 L21.7851649,26.9607843 L25.8292825,22.9166667 C26.7053395,22.0406097 28.1344296,22.0406097 29.02363,22.9166667 C29.900361,23.7927237 29.900361,25.2218137 29.02363,26.1116881 L24.0363904,31.0990962 L24.0363904,45.1053922 L27.770459,45.1053922 C28.215312,45.1053922 28.5523218,44.7414216 28.6064118,44.4044118 C29.2533022,40.2660999 31.1267397,36.4641238 34.0524903,33.4581648 Z" id="idea"></path>
            </g>
        </g>
    </g>
</svg>