<?xml version="1.0" encoding="UTF-8"?>
<svg width="47px" height="66px" viewBox="0 0 47 66" version="1.1" xmlns="http://www.w3.org/2000/svg" xmlns:xlink="http://www.w3.org/1999/xlink">
    <!-- Generator: Sketch 42 (36781) - http://www.bohemiancoding.com/sketch -->
    <title>notebook</title>
    <desc>Created with Sketch.</desc>
    <defs></defs>
    <g id="Page-1" stroke="none" stroke-width="1" fill="none" fill-rule="evenodd">
        <g id="Desktop-HD-Copy2" transform="translate(-772.000000, -1563.000000)" fill="#2E87E0">
            <g id="Group" transform="translate(772.000000, 1563.000000)">
                <path d="M42.605725,3.33955086e-13 L0,3.33955086e-13 L0,59.5295469 L4.36803238,59.5295469 L4.36803238,66 L8.73606476,63.0617665 L13.1109243,66 L13.1109243,59.5295469 L42.605725,59.5295469 C45.0116247,59.5295469 46.9682957,57.5546461 46.9682957,55.1263312 L46.9682957,4.4032157 C46.9682957,1.97490081 45.0116247,3.33955086e-13 42.605725,3.33955086e-13 Z M10.9234945,61.8820631 L8.73606476,60.4129463 L6.55546216,61.8820631 L6.55546216,59.5295469 L10.9234945,59.5295469 L10.9234945,61.8820631 Z M33.8641985,15.4339946 L33.8641985,57.3272499 L2.18196804,57.3272499 L2.18196804,40.8003759 L32.7704836,40.8003759 L32.7704836,18.7498434 L2.18196804,18.7498434 L2.18196804,2.20643141 L33.8641985,2.20643141 L33.8641985,15.4339946 Z M44.7876931,18.7498434 L40.4141989,18.7498434 L40.4141989,40.8003759 L44.7876931,40.8003759 L44.7876931,55.1263312 C44.7876931,56.3377323 43.805944,57.3272499 42.605725,57.3272499 L39.3259458,57.3272499 L39.3259458,2.20643141 L42.605725,2.20643141 C43.805944,2.20643141 44.7876931,3.19181458 44.7876931,4.4032157 L44.7876931,18.7498434 Z" id="notebook"></path>
            </g>
        </g>
    </g>
</svg>