<?xml version="1.0" encoding="UTF-8"?>
<svg width="564px" height="113px" viewBox="0 0 564 113" version="1.1" xmlns="http://www.w3.org/2000/svg" xmlns:xlink="http://www.w3.org/1999/xlink">
    <!-- Generator: Sketch 42 (36781) - http://www.bohemiancoding.com/sketch -->
    <title>Group 5</title>
    <desc>Created with Sketch.</desc>
    <defs>
        <linearGradient x1="0%" y1="100%" x2="100%" y2="0%" id="linearGradient-1">
            <stop stop-color="#6740B7" offset="0%"></stop>
            <stop stop-color="#2B8AE2" offset="100%"></stop>
        </linearGradient>
    </defs>
    <g id="Page-1" stroke="none" stroke-width="1" fill="none" fill-rule="evenodd">
        <g id="Desktop-HD-Copy2" transform="translate(-192.000000, -406.000000)" fill="url(#linearGradient-1)">
            <g id="Group-2" transform="translate(191.000000, 406.000000)">
                <g id="Group-5" transform="translate(1.000000, 0.000000)">
                    <path d="M30.1015625,36 L21.921875,36 L21.921875,21.75 L9.8046875,21.75 L9.8046875,36 L1.578125,36 L1.578125,1.875 L9.8046875,1.875 L9.8046875,15.421875 L21.921875,15.421875 L21.921875,1.875 L30.1015625,1.875 L30.1015625,36 Z M43.2734375,36 L35.3515625,36 L35.3515625,10.640625 L43.2734375,10.640625 L43.2734375,36 Z M34.8828125,4.1015625 C34.8828125,2.97655687 35.2890584,2.05469109 36.1015625,1.3359375 C36.9140666,0.617183906 37.9687435,0.2578125 39.265625,0.2578125 C40.5625065,0.2578125 41.6171834,0.617183906 42.4296875,1.3359375 C43.2421916,2.05469109 43.6484375,2.97655687 43.6484375,4.1015625 C43.6484375,5.22656813 43.2421916,6.14843391 42.4296875,6.8671875 C41.6171834,7.58594109 40.5625065,7.9453125 39.265625,7.9453125 C37.9687435,7.9453125 36.9140666,7.58594109 36.1015625,6.8671875 C35.2890584,6.14843391 34.8828125,5.22656813 34.8828125,4.1015625 Z M53.0234375,28.3359375 C54.2734437,28.3359375 55.3124959,28.7070275 56.140625,29.4492188 C56.9687541,30.19141 57.3828125,31.1406192 57.3828125,32.296875 C57.3828125,33.4531308 56.9687541,34.40234 56.140625,35.1445312 C55.3124959,35.8867225 54.2734437,36.2578125 53.0234375,36.2578125 C51.7578062,36.2578125 50.7148479,35.8828163 49.8945312,35.1328125 C49.0742146,34.3828087 48.6640625,33.4375057 48.6640625,32.296875 C48.6640625,31.1562443 49.0742146,30.2109412 49.8945312,29.4609375 C50.7148479,28.7109338 51.7578062,28.3359375 53.0234375,28.3359375 Z M85.765625,1.875 L93.3828125,25.6171875 L100.976562,1.875 L111.804688,1.875 L111.804688,36 L103.554688,36 L103.554688,28.03125 L104.351562,11.71875 L96.1015625,36 L90.6640625,36 L82.390625,11.6953125 L83.1875,28.03125 L83.1875,36 L74.9609375,36 L74.9609375,1.875 L85.765625,1.875 Z M126.804688,24.9375 L131.023437,10.640625 L139.484375,10.640625 L129.148438,40.2421875 L128.703125,41.3203125 C127.234368,44.6015789 124.640644,46.2421875 120.921875,46.2421875 C119.89062,46.2421875 118.804693,46.0859391 117.664062,45.7734375 L117.664062,40.125 L118.695312,40.125 C119.804693,40.125 120.652341,39.9648454 121.238281,39.6445312 C121.824222,39.3242171 122.257811,38.7500041 122.539062,37.921875 L123.171875,36.234375 L114.359375,10.640625 L122.796875,10.640625 L126.804688,24.9375 Z M160.742188,10.640625 L161,13.6171875 C162.750009,11.320301 165.164047,10.171875 168.242188,10.171875 C170.882826,10.171875 172.855462,10.9609296 174.160156,12.5390625 C175.46485,14.1171954 176.140625,16.4921716 176.1875,19.6640625 L176.1875,36 L168.265625,36 L168.265625,19.9921875 C168.265625,18.7109311 168.007815,17.7695343 167.492188,17.1679688 C166.97656,16.5664032 166.039069,16.265625 164.679688,16.265625 C163.132805,16.265625 161.984379,16.8749939 161.234375,18.09375 L161.234375,36 L153.335938,36 L153.335938,10.640625 L160.742188,10.640625 Z M194.84375,36 C194.562499,35.4843724 194.312501,34.7265675 194.09375,33.7265625 C192.640618,35.5546966 190.609388,36.46875 188,36.46875 C185.609363,36.46875 183.578133,35.746101 181.90625,34.3007812 C180.234367,32.8554615 179.398438,31.0390734 179.398438,28.8515625 C179.398438,26.1015487 180.414052,24.0234445 182.445312,22.6171875 C184.476573,21.2109305 187.429668,20.5078125 191.304688,20.5078125 L193.742188,20.5078125 L193.742188,19.171875 C193.742188,16.8437384 192.734385,15.6796875 190.71875,15.6796875 C188.843741,15.6796875 187.90625,16.6015533 187.90625,18.4453125 L180.007812,18.4453125 C180.007812,15.9921752 181.050771,14.0000077 183.136719,12.46875 C185.222667,10.9374923 187.882796,10.171875 191.117188,10.171875 C194.351579,10.171875 196.906241,10.9609296 198.78125,12.5390625 C200.656259,14.1171954 201.617187,16.2812362 201.664062,19.03125 L201.664062,30.2578125 C201.695313,32.5859491 202.054684,34.3671813 202.742188,35.6015625 L202.742188,36 L194.84375,36 Z M189.898438,30.84375 C190.882817,30.84375 191.699216,30.6328146 192.347656,30.2109375 C192.996097,29.7890604 193.460936,29.3125027 193.742188,28.78125 L193.742188,24.7265625 L191.445312,24.7265625 C188.695299,24.7265625 187.320312,25.9609252 187.320312,28.4296875 C187.320312,29.1484411 187.562498,29.7304665 188.046875,30.1757813 C188.531252,30.621096 189.148434,30.84375 189.898438,30.84375 Z M213.5,10.640625 L213.757812,13.6171875 C215.554696,11.320301 217.968735,10.171875 221,10.171875 C224.203141,10.171875 226.367182,11.4452998 227.492188,13.9921875 C229.210946,11.4452998 231.695296,10.171875 234.945312,10.171875 C240.085963,10.171875 242.726562,13.2812189 242.867188,19.5 L242.867188,36 L234.945312,36 L234.945312,19.9921875 C234.945312,18.695306 234.726565,17.750003 234.289062,17.15625 C233.85156,16.562497 233.054693,16.265625 231.898438,16.265625 C230.33593,16.265625 229.171879,16.9609305 228.40625,18.3515625 L228.429688,18.6796875 L228.429688,36 L220.507812,36 L220.507812,20.0390625 C220.507812,18.7109309 220.296877,17.750003 219.875,17.15625 C219.453123,16.562497 218.648443,16.265625 217.460938,16.265625 C215.945305,16.265625 214.789066,16.9609305 213.992188,18.3515625 L213.992188,36 L206.09375,36 L206.09375,10.640625 L213.5,10.640625 Z M259.648437,36.46875 C255.757793,36.46875 252.609387,35.3086054 250.203125,32.9882812 C247.796863,30.6679571 246.59375,27.6484561 246.59375,23.9296875 L246.59375,23.2734375 C246.59375,20.6796745 247.074214,18.3906349 248.035156,16.40625 C248.996099,14.4218651 250.398428,12.8867242 252.242187,11.8007812 C254.085947,10.7148383 256.273425,10.171875 258.804687,10.171875 C262.367205,10.171875 265.179677,11.2773327 267.242187,13.4882812 C269.304698,15.6992298 270.335937,18.7812302 270.335937,22.734375 L270.335937,25.8046875 L254.632812,25.8046875 C254.914064,27.2265696 255.531245,28.3437459 256.484375,29.15625 C257.437505,29.9687541 258.671867,30.375 260.1875,30.375 C262.687512,30.375 264.640618,29.5000087 266.046875,27.75 L269.65625,32.015625 C268.67187,33.3750068 267.277353,34.4570272 265.472656,35.2617188 C263.66796,36.0664103 261.726573,36.46875 259.648437,36.46875 Z M258.757812,16.265625 C256.445301,16.265625 255.070315,17.7968597 254.632812,20.859375 L262.601562,20.859375 L262.601562,20.25 C262.632813,18.9843687 262.312503,18.0039097 261.640625,17.3085938 C260.968747,16.6132778 260.007819,16.265625 258.757812,16.265625 Z M293.796875,36 L285.875,36 L285.875,10.640625 L293.796875,10.640625 L293.796875,36 Z M285.40625,4.1015625 C285.40625,2.97655687 285.812496,2.05469109 286.625,1.3359375 C287.437504,0.617183906 288.492181,0.2578125 289.789062,0.2578125 C291.085944,0.2578125 292.140621,0.617183906 292.953125,1.3359375 C293.765629,2.05469109 294.171875,2.97655687 294.171875,4.1015625 C294.171875,5.22656813 293.765629,6.14843391 292.953125,6.8671875 C292.140621,7.58594109 291.085944,7.9453125 289.789062,7.9453125 C288.492181,7.9453125 287.437504,7.58594109 286.625,6.8671875 C285.812496,6.14843391 285.40625,5.22656813 285.40625,4.1015625 Z M311.9375,28.875 C311.9375,28.2031216 311.585941,27.6640645 310.882812,27.2578125 C310.179684,26.8515605 308.84376,26.4296897 306.875,25.9921875 C304.90624,25.5546853 303.281256,24.9804723 302,24.2695312 C300.718744,23.5585902 299.742191,22.6953176 299.070312,21.6796875 C298.398434,20.6640574 298.0625,19.5000066 298.0625,18.1875 C298.0625,15.8593634 299.023428,13.9414138 300.945312,12.4335938 C302.867197,10.9257737 305.382797,10.171875 308.492188,10.171875 C311.835954,10.171875 314.523427,10.9296799 316.554688,12.4453125 C318.585948,13.9609451 319.601562,15.9531127 319.601562,18.421875 L311.679688,18.421875 C311.679688,16.3906148 310.609386,15.375 308.46875,15.375 C307.640621,15.375 306.945315,15.6054664 306.382812,16.0664062 C305.82031,16.5273461 305.539062,17.1015591 305.539062,17.7890625 C305.539062,18.492191 305.882809,19.0624978 306.570312,19.5 C307.257816,19.9375022 308.355461,20.2968736 309.863281,20.578125 C311.371101,20.8593764 312.695307,21.1953105 313.835938,21.5859375 C317.648457,22.8984441 319.554688,25.249983 319.554688,28.640625 C319.554688,30.9531366 318.527354,32.8359302 316.472656,34.2890625 C314.417958,35.7421948 311.757829,36.46875 308.492188,36.46875 C306.320302,36.46875 304.382821,36.0781289 302.679688,35.296875 C300.976554,34.5156211 299.648442,33.4531317 298.695312,32.109375 C297.742183,30.7656183 297.265625,29.3515699 297.265625,27.8671875 L304.648438,27.8671875 C304.679688,29.0390684 305.070309,29.8945286 305.820312,30.4335938 C306.570316,30.9726589 307.531244,31.2421875 308.703125,31.2421875 C309.781255,31.2421875 310.589841,31.0234397 311.128906,30.5859375 C311.667971,30.1484353 311.9375,29.5781285 311.9375,28.875 Z M343.789062,24.421875 L343.789062,36 L335.5625,36 L335.5625,1.875 L349.179688,1.875 C351.789076,1.875 354.097646,2.35546395 356.105469,3.31640625 C358.113291,4.27734855 359.667963,5.64452238 360.769531,7.41796875 C361.871099,9.19141512 362.421875,11.2031137 362.421875,13.453125 C362.421875,16.7812666 361.230481,19.4413963 358.847656,21.4335938 C356.464832,23.4257912 353.195333,24.421875 349.039062,24.421875 L343.789062,24.421875 Z M343.789062,18.0703125 L349.179688,18.0703125 C350.773445,18.0703125 351.988277,17.671879 352.824219,16.875 C353.66016,16.078121 354.078125,14.9531323 354.078125,13.5 C354.078125,11.906242 353.648442,10.6328173 352.789062,9.6796875 C351.929683,8.72655773 350.75782,8.24218758 349.273438,8.2265625 L343.789062,8.2265625 L343.789062,18.0703125 Z M374.164062,13.359375 C375.851571,11.2343644 378.007799,10.171875 380.632812,10.171875 C383.429701,10.171875 385.539055,10.9999917 386.960938,12.65625 C388.38282,14.3125083 389.109375,16.7577963 389.140625,19.9921875 L389.140625,36 L381.21875,36 L381.21875,20.1796875 C381.21875,18.8359308 380.945315,17.8476594 380.398438,17.2148438 C379.85156,16.5820281 378.921882,16.265625 377.609375,16.265625 C375.984367,16.265625 374.835941,16.7812448 374.164062,17.8125 L374.164062,36 L366.265625,36 L366.265625,0 L374.164062,0 L374.164062,13.359375 Z M401.867188,36 L393.945312,36 L393.945312,10.640625 L401.867188,10.640625 L401.867188,36 Z M393.476562,4.1015625 C393.476562,2.97655687 393.882808,2.05469109 394.695312,1.3359375 C395.507817,0.617183906 396.562494,0.2578125 397.859375,0.2578125 C399.156256,0.2578125 400.210933,0.617183906 401.023438,1.3359375 C401.835942,2.05469109 402.242188,2.97655687 402.242188,4.1015625 C402.242188,5.22656813 401.835942,6.14843391 401.023438,6.8671875 C400.210933,7.58594109 399.156256,7.9453125 397.859375,7.9453125 C396.562494,7.9453125 395.507817,7.58594109 394.695312,6.8671875 C393.882808,6.14843391 393.476562,5.22656813 393.476562,4.1015625 Z M415.0625,36 L407.140625,36 L407.140625,0 L415.0625,0 L415.0625,36 Z M424.8125,28.3359375 C426.062506,28.3359375 427.101558,28.7070275 427.929688,29.4492188 C428.757817,30.19141 429.171875,31.1406192 429.171875,32.296875 C429.171875,33.4531308 428.757817,34.40234 427.929688,35.1445312 C427.101558,35.8867225 426.062506,36.2578125 424.8125,36.2578125 C423.546869,36.2578125 422.50391,35.8828163 421.683594,35.1328125 C420.863277,34.3828087 420.453125,33.4375057 420.453125,32.296875 C420.453125,31.1562443 420.863277,30.2109412 421.683594,29.4609375 C422.50391,28.7109338 423.546869,28.3359375 424.8125,28.3359375 Z" id="Hi.-My-name-is-Phil."></path>
                    <path d="M30.1640625,36 L21.984375,36 L21.984375,21.75 L9.8671875,21.75 L9.8671875,36 L1.640625,36 L1.640625,1.875 L9.8671875,1.875 L9.8671875,15.421875 L21.984375,15.421875 L21.984375,1.875 L30.1640625,1.875 L30.1640625,36 Z M43.3359375,36 L35.4140625,36 L35.4140625,10.640625 L43.3359375,10.640625 L43.3359375,36 Z M34.9453125,4.1015625 C34.9453125,2.97655687 35.3515584,2.05469109 36.1640625,1.3359375 C36.9765666,0.617183906 38.0312435,0.2578125 39.328125,0.2578125 C40.6250065,0.2578125 41.6796834,0.617183906 42.4921875,1.3359375 C43.3046916,2.05469109 43.7109375,2.97655687 43.7109375,4.1015625 C43.7109375,5.22656813 43.3046916,6.14843391 42.4921875,6.8671875 C41.6796834,7.58594109 40.6250065,7.9453125 39.328125,7.9453125 C38.0312435,7.9453125 36.9765666,7.58594109 36.1640625,6.8671875 C35.3515584,6.14843391 34.9453125,5.22656813 34.9453125,4.1015625 Z M53.0859375,28.3359375 C54.3359437,28.3359375 55.3749959,28.7070275 56.203125,29.4492188 C57.0312541,30.19141 57.4453125,31.1406192 57.4453125,32.296875 C57.4453125,33.4531308 57.0312541,34.40234 56.203125,35.1445312 C55.3749959,35.8867225 54.3359437,36.2578125 53.0859375,36.2578125 C51.8203062,36.2578125 50.7773479,35.8828162 49.9570312,35.1328125 C49.1367146,34.3828088 48.7265625,33.4375057 48.7265625,32.296875 C48.7265625,31.1562443 49.1367146,30.2109413 49.9570312,29.4609375 C50.7773479,28.7109338 51.8203062,28.3359375 53.0859375,28.3359375 Z M85.828125,1.875 L93.4453125,25.6171875 L101.039062,1.875 L111.867188,1.875 L111.867188,36 L103.617188,36 L103.617188,28.03125 L104.414062,11.71875 L96.1640625,36 L90.7265625,36 L82.453125,11.6953125 L83.25,28.03125 L83.25,36 L75.0234375,36 L75.0234375,1.875 L85.828125,1.875 Z M126.867188,24.9375 L131.085938,10.640625 L139.546875,10.640625 L129.210938,40.2421875 L128.765625,41.3203125 C127.296868,44.6015789 124.703144,46.2421875 120.984375,46.2421875 C119.95312,46.2421875 118.867193,46.0859391 117.726562,45.7734375 L117.726562,40.125 L118.757812,40.125 C119.867193,40.125 120.714841,39.9648454 121.300781,39.6445312 C121.886722,39.3242171 122.320311,38.7500041 122.601562,37.921875 L123.234375,36.234375 L114.421875,10.640625 L122.859375,10.640625 L126.867188,24.9375 Z M160.804688,10.640625 L161.0625,13.6171875 C162.812509,11.320301 165.226547,10.171875 168.304688,10.171875 C170.945326,10.171875 172.917962,10.9609296 174.222656,12.5390625 C175.52735,14.1171954 176.203125,16.4921716 176.25,19.6640625 L176.25,36 L168.328125,36 L168.328125,19.9921875 C168.328125,18.7109311 168.070315,17.7695343 167.554688,17.1679688 C167.03906,16.5664032 166.101569,16.265625 164.742188,16.265625 C163.195305,16.265625 162.046879,16.8749939 161.296875,18.09375 L161.296875,36 L153.398438,36 L153.398438,10.640625 L160.804688,10.640625 Z M194.90625,36 C194.624999,35.4843724 194.375001,34.7265675 194.15625,33.7265625 C192.703118,35.5546966 190.671888,36.46875 188.0625,36.46875 C185.671863,36.46875 183.640633,35.746101 181.96875,34.3007812 C180.296867,32.8554615 179.460938,31.0390734 179.460938,28.8515625 C179.460938,26.1015488 180.476552,24.0234445 182.507812,22.6171875 C184.539073,21.2109305 187.492168,20.5078125 191.367188,20.5078125 L193.804688,20.5078125 L193.804688,19.171875 C193.804688,16.8437384 192.796885,15.6796875 190.78125,15.6796875 C188.906241,15.6796875 187.96875,16.6015533 187.96875,18.4453125 L180.070312,18.4453125 C180.070312,15.9921752 181.113271,14.0000077 183.199219,12.46875 C185.285167,10.9374923 187.945296,10.171875 191.179688,10.171875 C194.414079,10.171875 196.968741,10.9609296 198.84375,12.5390625 C200.718759,14.1171954 201.679687,16.2812363 201.726562,19.03125 L201.726562,30.2578125 C201.757813,32.5859491 202.117184,34.3671813 202.804688,35.6015625 L202.804688,36 L194.90625,36 Z M189.960938,30.84375 C190.945317,30.84375 191.761716,30.6328146 192.410156,30.2109375 C193.058597,29.7890604 193.523436,29.3125027 193.804688,28.78125 L193.804688,24.7265625 L191.507812,24.7265625 C188.757799,24.7265625 187.382812,25.9609252 187.382812,28.4296875 C187.382812,29.1484411 187.624998,29.7304665 188.109375,30.1757812 C188.593752,30.621096 189.210934,30.84375 189.960938,30.84375 Z M213.5625,10.640625 L213.820312,13.6171875 C215.617196,11.320301 218.031235,10.171875 221.0625,10.171875 C224.265641,10.171875 226.429682,11.4452998 227.554688,13.9921875 C229.273446,11.4452998 231.757796,10.171875 235.007812,10.171875 C240.148463,10.171875 242.789062,13.2812189 242.929688,19.5 L242.929688,36 L235.007812,36 L235.007812,19.9921875 C235.007812,18.695306 234.789065,17.750003 234.351562,17.15625 C233.91406,16.562497 233.117193,16.265625 231.960938,16.265625 C230.39843,16.265625 229.234379,16.9609305 228.46875,18.3515625 L228.492188,18.6796875 L228.492188,36 L220.570312,36 L220.570312,20.0390625 C220.570312,18.7109309 220.359377,17.750003 219.9375,17.15625 C219.515623,16.562497 218.710943,16.265625 217.523438,16.265625 C216.007805,16.265625 214.851566,16.9609305 214.054688,18.3515625 L214.054688,36 L206.15625,36 L206.15625,10.640625 L213.5625,10.640625 Z M259.710938,36.46875 C255.820293,36.46875 252.671887,35.3086054 250.265625,32.9882812 C247.859363,30.6679571 246.65625,27.6484561 246.65625,23.9296875 L246.65625,23.2734375 C246.65625,20.6796745 247.136714,18.3906349 248.097656,16.40625 C249.058599,14.4218651 250.460928,12.8867242 252.304688,11.8007812 C254.148447,10.7148383 256.335925,10.171875 258.867188,10.171875 C262.429705,10.171875 265.242177,11.2773327 267.304688,13.4882812 C269.367198,15.6992298 270.398438,18.7812302 270.398438,22.734375 L270.398438,25.8046875 L254.695312,25.8046875 C254.976564,27.2265696 255.593745,28.3437459 256.546875,29.15625 C257.500005,29.9687541 258.734367,30.375 260.25,30.375 C262.750013,30.375 264.703118,29.5000088 266.109375,27.75 L269.71875,32.015625 C268.73437,33.3750068 267.339853,34.4570272 265.535156,35.2617188 C263.73046,36.0664103 261.789073,36.46875 259.710938,36.46875 Z M258.820312,16.265625 C256.507801,16.265625 255.132815,17.7968597 254.695312,20.859375 L262.664062,20.859375 L262.664062,20.25 C262.695313,18.9843687 262.375003,18.0039097 261.703125,17.3085938 C261.031247,16.6132778 260.070319,16.265625 258.820312,16.265625 Z M293.859375,36 L285.9375,36 L285.9375,10.640625 L293.859375,10.640625 L293.859375,36 Z M285.46875,4.1015625 C285.46875,2.97655687 285.874996,2.05469109 286.6875,1.3359375 C287.500004,0.617183906 288.554681,0.2578125 289.851562,0.2578125 C291.148444,0.2578125 292.203121,0.617183906 293.015625,1.3359375 C293.828129,2.05469109 294.234375,2.97655687 294.234375,4.1015625 C294.234375,5.22656813 293.828129,6.14843391 293.015625,6.8671875 C292.203121,7.58594109 291.148444,7.9453125 289.851562,7.9453125 C288.554681,7.9453125 287.500004,7.58594109 286.6875,6.8671875 C285.874996,6.14843391 285.46875,5.22656813 285.46875,4.1015625 Z M312,28.875 C312,28.2031216 311.648441,27.6640645 310.945312,27.2578125 C310.242184,26.8515605 308.90626,26.4296897 306.9375,25.9921875 C304.96874,25.5546853 303.343756,24.9804723 302.0625,24.2695312 C300.781244,23.5585902 299.804691,22.6953176 299.132812,21.6796875 C298.460934,20.6640574 298.125,19.5000066 298.125,18.1875 C298.125,15.8593634 299.085928,13.9414138 301.007812,12.4335938 C302.929697,10.9257737 305.445297,10.171875 308.554688,10.171875 C311.898454,10.171875 314.585927,10.9296799 316.617188,12.4453125 C318.648448,13.9609451 319.664062,15.9531127 319.664062,18.421875 L311.742188,18.421875 C311.742188,16.3906148 310.671886,15.375 308.53125,15.375 C307.703121,15.375 307.007815,15.6054664 306.445312,16.0664062 C305.88281,16.5273461 305.601562,17.1015591 305.601562,17.7890625 C305.601562,18.492191 305.945309,19.0624978 306.632812,19.5 C307.320316,19.9375022 308.417961,20.2968736 309.925781,20.578125 C311.433601,20.8593764 312.757807,21.1953105 313.898438,21.5859375 C317.710957,22.8984441 319.617188,25.249983 319.617188,28.640625 C319.617188,30.9531366 318.589854,32.8359302 316.535156,34.2890625 C314.480458,35.7421948 311.820329,36.46875 308.554688,36.46875 C306.382802,36.46875 304.445321,36.0781289 302.742188,35.296875 C301.039054,34.5156211 299.710942,33.4531317 298.757812,32.109375 C297.804683,30.7656183 297.328125,29.3515699 297.328125,27.8671875 L304.710938,27.8671875 C304.742188,29.0390684 305.132809,29.8945286 305.882812,30.4335938 C306.632816,30.9726589 307.593744,31.2421875 308.765625,31.2421875 C309.843755,31.2421875 310.652341,31.0234397 311.191406,30.5859375 C311.730471,30.1484353 312,29.5781285 312,28.875 Z M343.851562,24.421875 L343.851562,36 L335.625,36 L335.625,1.875 L349.242188,1.875 C351.851576,1.875 354.160146,2.35546395 356.167969,3.31640625 C358.175791,4.27734855 359.730463,5.64452238 360.832031,7.41796875 C361.933599,9.19141512 362.484375,11.2031137 362.484375,13.453125 C362.484375,16.7812666 361.292981,19.4413963 358.910156,21.4335938 C356.527332,23.4257912 353.257833,24.421875 349.101562,24.421875 L343.851562,24.421875 Z M343.851562,18.0703125 L349.242188,18.0703125 C350.835945,18.0703125 352.050777,17.671879 352.886719,16.875 C353.72266,16.078121 354.140625,14.9531323 354.140625,13.5 C354.140625,11.906242 353.710942,10.6328173 352.851562,9.6796875 C351.992183,8.72655773 350.82032,8.24218758 349.335938,8.2265625 L343.851562,8.2265625 L343.851562,18.0703125 Z M374.226562,13.359375 C375.914071,11.2343644 378.070299,10.171875 380.695312,10.171875 C383.492201,10.171875 385.601555,10.9999917 387.023438,12.65625 C388.44532,14.3125083 389.171875,16.7577963 389.203125,19.9921875 L389.203125,36 L381.28125,36 L381.28125,20.1796875 C381.28125,18.8359308 381.007815,17.8476594 380.460938,17.2148438 C379.91406,16.5820281 378.984382,16.265625 377.671875,16.265625 C376.046867,16.265625 374.898441,16.7812448 374.226562,17.8125 L374.226562,36 L366.328125,36 L366.328125,0 L374.226562,0 L374.226562,13.359375 Z M401.929688,36 L394.007812,36 L394.007812,10.640625 L401.929688,10.640625 L401.929688,36 Z M393.539062,4.1015625 C393.539062,2.97655687 393.945308,2.05469109 394.757812,1.3359375 C395.570317,0.617183906 396.624994,0.2578125 397.921875,0.2578125 C399.218756,0.2578125 400.273433,0.617183906 401.085938,1.3359375 C401.898442,2.05469109 402.304688,2.97655687 402.304688,4.1015625 C402.304688,5.22656813 401.898442,6.14843391 401.085938,6.8671875 C400.273433,7.58594109 399.218756,7.9453125 397.921875,7.9453125 C396.624994,7.9453125 395.570317,7.58594109 394.757812,6.8671875 C393.945308,6.14843391 393.539062,5.22656813 393.539062,4.1015625 Z M415.125,36 L407.203125,36 L407.203125,0 L415.125,0 L415.125,36 Z M424.875,28.3359375 C426.125006,28.3359375 427.164058,28.7070275 427.992188,29.4492188 C428.820317,30.19141 429.234375,31.1406192 429.234375,32.296875 C429.234375,33.4531308 428.820317,34.40234 427.992188,35.1445312 C427.164058,35.8867225 426.125006,36.2578125 424.875,36.2578125 C423.609369,36.2578125 422.56641,35.8828162 421.746094,35.1328125 C420.925777,34.3828088 420.515625,33.4375057 420.515625,32.296875 C420.515625,31.1562443 420.925777,30.2109413 421.746094,29.4609375 C422.56641,28.7109338 423.609369,28.3359375 424.875,28.3359375 Z M6.09375,106 L0.8125,106 L0.8125,89.09375 L6.09375,89.09375 L6.09375,106 Z M0.5,84.734375 C0.5,83.9843712 0.770830625,83.3697941 1.3125,82.890625 C1.85416937,82.4114559 2.55728734,82.171875 3.421875,82.171875 C4.28646266,82.171875 4.98958063,82.4114559 5.53125,82.890625 C6.07291938,83.3697941 6.34375,83.9843712 6.34375,84.734375 C6.34375,85.4843787 6.07291938,86.0989559 5.53125,86.578125 C4.98958063,87.0572941 4.28646266,87.296875 3.421875,87.296875 C2.55728734,87.296875 1.85416937,87.0572941 1.3125,86.578125 C0.770830625,86.0989559 0.5,85.4843787 0.5,84.734375 Z M28.84375,95.09375 C28.84375,97.3125111 28.4322958,99.2760331 27.609375,100.984375 C26.7864542,102.692717 25.6171951,104.007808 24.1015625,104.929688 C22.5859299,105.851567 20.8593847,106.3125 18.921875,106.3125 C16.9843653,106.3125 15.2656325,105.867192 13.765625,104.976562 C12.2656175,104.085933 11.0963584,102.812508 10.2578125,101.15625 C9.41926664,99.4999917 8.97916688,97.5989691 8.9375,95.453125 L8.9375,94.171875 C8.9375,91.9426972 9.34635008,89.976571 10.1640625,88.2734375 C10.9817749,86.570304 12.1536382,85.255213 13.6796875,84.328125 C15.2057368,83.401037 16.9426986,82.9375 18.890625,82.9375 C20.817718,82.9375 22.5364508,83.3958287 24.046875,84.3125 C25.5572992,85.2291713 26.7317666,86.5338457 27.5703125,88.2265625 C28.4088584,89.9192793 28.8333333,91.8593641 28.84375,94.046875 L28.84375,95.09375 Z M23.265625,94.140625 C23.265625,91.880197 22.8880246,90.1640684 22.1328125,88.9921875 C21.3776004,87.8203066 20.296882,87.234375 18.890625,87.234375 C16.1406112,87.234375 14.6875008,89.2968544 14.53125,93.421875 L14.515625,95.09375 C14.515625,97.3229278 14.885413,99.0364523 15.625,100.234375 C16.364587,101.432298 17.4635344,102.03125 18.921875,102.03125 C20.3072986,102.03125 21.3749963,101.442714 22.125,100.265625 C22.8750037,99.0885358 23.2552083,97.3958444 23.265625,95.1875 L23.265625,94.140625 Z M43.40625,99.953125 C43.40625,99.1510377 43.1223987,98.5260439 42.5546875,98.078125 C41.9869763,97.6302061 40.9895905,97.1666691 39.5625,96.6875 C38.1354095,96.2083309 36.9687545,95.7447939 36.0625,95.296875 C33.1145686,93.8489511 31.640625,91.8593877 31.640625,89.328125 C31.640625,88.067702 32.0078088,86.955734 32.7421875,85.9921875 C33.4765662,85.028641 34.5156183,84.2786485 35.859375,83.7421875 C37.2031317,83.2057265 38.7135333,82.9375 40.390625,82.9375 C42.0260498,82.9375 43.492181,83.2291637 44.7890625,83.8125 C46.085944,84.3958363 47.0937464,85.2265571 47.8125,86.3046875 C48.5312536,87.3828179 48.890625,88.6145764 48.890625,90 L43.421875,90 C43.421875,89.072912 43.1380237,88.3541692 42.5703125,87.84375 C42.0026013,87.3333308 41.2343798,87.078125 40.265625,87.078125 C39.2864534,87.078125 38.5130237,87.2942687 37.9453125,87.7265625 C37.3776013,88.1588563 37.09375,88.70833 37.09375,89.375 C37.09375,89.9583363 37.4062469,90.4869768 38.03125,90.9609375 C38.6562531,91.4348982 39.7552005,91.9244766 41.328125,92.4296875 C42.9010495,92.9348984 44.1927033,93.4791637 45.203125,94.0625 C47.6614706,95.4791738 48.890625,97.4322792 48.890625,99.921875 C48.890625,101.911468 48.1406325,103.473953 46.640625,104.609375 C45.1406175,105.744797 43.0833464,106.3125 40.46875,106.3125 C38.6249908,106.3125 36.9557366,105.981774 35.4609375,105.320312 C33.9661384,104.658851 32.8411496,103.75261 32.0859375,102.601562 C31.3307254,101.450515 30.953125,100.125008 30.953125,98.625 L36.453125,98.625 C36.453125,99.8437561 36.768226,100.742185 37.3984375,101.320312 C38.028649,101.89844 39.0520762,102.1875 40.46875,102.1875 C41.3750045,102.1875 42.0911432,101.992189 42.6171875,101.601562 C43.1432318,101.210936 43.40625,100.661462 43.40625,99.953125 Z M62.8125,94.015625 C62.1979136,93.1406206 61.7161476,92.3072956 61.3671875,91.515625 C61.0182274,90.7239544 60.84375,89.9062542 60.84375,89.0625 C60.84375,87.2291575 61.4374941,85.7474015 62.625,84.6171875 C63.8125059,83.4869735 65.3645738,82.921875 67.28125,82.921875 C69.0000086,82.921875 70.4218694,83.4453073 71.546875,84.4921875 C72.6718806,85.5390677 73.234375,86.8385339 73.234375,88.390625 C73.234375,90.3281347 72.1666773,92.0468675 70.03125,93.546875 L68.84375,94.375 L72.34375,98.390625 C72.9166695,97.2447859 73.203125,95.9895902 73.203125,94.625 L77.625,94.625 C77.625,97.697932 76.9166738,100.161449 75.5,102.015625 L78.96875,106 L73.09375,106 L72.03125,104.796875 C71.1562456,105.317711 70.2630254,105.703124 69.3515625,105.953125 C68.4400996,106.203126 67.4114641,106.328125 66.265625,106.328125 C64.0156137,106.328125 62.2135484,105.736985 60.859375,104.554688 C59.5052016,103.37239 58.828125,101.817718 58.828125,99.890625 C58.828125,98.8385364 59.0963515,97.8854209 59.6328125,97.03125 C60.1692735,96.1770791 61.2135339,95.1822973 62.765625,94.046875 L62.8125,94.015625 Z M66.609375,102.265625 C67.5260462,102.265625 68.4010375,102.052085 69.234375,101.625 L65.140625,96.96875 L65,97.0625 C64.406247,97.7916703 64.109375,98.6145787 64.109375,99.53125 C64.109375,100.29167 64.3489559,100.937497 64.828125,101.46875 C65.3072941,102.000003 65.9010381,102.265625 66.609375,102.265625 Z M65.390625,89 C65.390625,89.7291703 65.7864544,90.6145781 66.578125,91.65625 L67.625,91 C68.1041691,90.6874984 68.4531239,90.364585 68.671875,90.03125 C68.8906261,89.697915 69,89.2760442 69,88.765625 C69,88.2864559 68.833335,87.8697934 68.5,87.515625 C68.166665,87.1614566 67.7552108,86.984375 67.265625,86.984375 C66.6822887,86.984375 66.22396,87.169269 65.890625,87.5390625 C65.55729,87.908856 65.390625,88.3958303 65.390625,89 Z M106.828125,97.515625 L109.4375,83.25 L114.875,83.25 L110.046875,106 L104.359375,106 L101.3125,93.03125 L98.328125,106 L92.65625,106 L87.8125,83.25 L93.265625,83.25 L95.875,97.515625 L99,83.25 L103.65625,83.25 L106.828125,97.515625 Z M124.46875,106.3125 C121.874987,106.3125 119.77605,105.53907 118.171875,103.992188 C116.5677,102.445305 115.765625,100.432304 115.765625,97.953125 L115.765625,97.515625 C115.765625,95.7864497 116.085934,94.2604233 116.726562,92.9375 C117.367191,91.6145767 118.302077,90.5911495 119.53125,89.8671875 C120.760423,89.1432255 122.218742,88.78125 123.90625,88.78125 C126.281262,88.78125 128.156243,89.5182218 129.53125,90.9921875 C130.906257,92.4661532 131.59375,94.5208202 131.59375,97.15625 L131.59375,99.203125 L121.125,99.203125 C121.312501,100.151046 121.723955,100.895831 122.359375,101.4375 C122.994795,101.979169 123.817703,102.25 124.828125,102.25 C126.4948,102.25 127.79687,101.666673 128.734375,100.5 L131.140625,103.34375 C130.484372,104.250005 129.554694,104.971351 128.351562,105.507812 C127.148431,106.044274 125.854174,106.3125 124.46875,106.3125 Z M123.875,92.84375 C122.333326,92.84375 121.416668,93.8645731 121.125,95.90625 L126.4375,95.90625 L126.4375,95.5 C126.458333,94.6562458 126.244794,94.0026065 125.796875,93.5390625 C125.348956,93.0755185 124.708337,92.84375 123.875,92.84375 Z M149.40625,97.6875 C149.40625,100.458347 148.833339,102.588534 147.6875,104.078125 C146.541661,105.567716 144.927094,106.3125 142.84375,106.3125 C141.124991,106.3125 139.739589,105.630215 138.6875,104.265625 L138.46875,106 L133.75,106 L133.75,82 L139.015625,82 L139.015625,90.453125 C139.994797,89.3385361 141.260409,88.78125 142.8125,88.78125 C144.916677,88.78125 146.541661,89.5364508 147.6875,91.046875 C148.833339,92.5572992 149.40625,94.682278 149.40625,97.421875 L149.40625,97.6875 Z M144.125,97.359375 C144.125,95.7343669 143.908856,94.5755243 143.476562,93.8828125 C143.044269,93.1901007 142.380213,92.84375 141.484375,92.84375 C140.296869,92.84375 139.473961,93.2968705 139.015625,94.203125 L139.015625,100.921875 C139.463544,101.817713 140.296869,102.265625 141.515625,102.265625 C142.755215,102.265625 143.541665,101.661464 143.875,100.453125 C144.041667,99.859372 144.125,98.8281323 144.125,97.359375 Z M159.9375,106 L159.9375,83.25 L167.265625,83.25 C169.276052,83.25 171.083325,83.7057246 172.6875,84.6171875 C174.291675,85.5286504 175.544266,86.8150959 176.445312,88.4765625 C177.346359,90.1380291 177.802083,91.9999897 177.8125,94.0625 L177.8125,95.109375 C177.8125,97.1927187 177.3724,99.0598876 176.492188,100.710938 C175.611975,102.361987 174.372404,103.653641 172.773438,104.585938 C171.174471,105.518234 169.390635,105.989583 167.421875,106 L159.9375,106 Z M165.421875,87.484375 L165.421875,101.78125 L167.328125,101.78125 C168.90105,101.78125 170.109371,101.22136 170.953125,100.101562 C171.796879,98.9817652 172.21875,97.3177194 172.21875,95.109375 L172.21875,94.125 C172.21875,91.9270723 171.796879,90.2708389 170.953125,89.15625 C170.109371,88.0416611 168.880216,87.484375 167.265625,87.484375 L165.421875,87.484375 Z M188.5625,106.3125 C185.968737,106.3125 183.8698,105.53907 182.265625,103.992188 C180.66145,102.445305 179.859375,100.432304 179.859375,97.953125 L179.859375,97.515625 C179.859375,95.7864497 180.179684,94.2604233 180.820312,92.9375 C181.460941,91.6145767 182.395827,90.5911495 183.625,89.8671875 C184.854173,89.1432255 186.312492,88.78125 188,88.78125 C190.375012,88.78125 192.249993,89.5182218 193.625,90.9921875 C195.000007,92.4661532 195.6875,94.5208202 195.6875,97.15625 L195.6875,99.203125 L185.21875,99.203125 C185.406251,100.151046 185.817705,100.895831 186.453125,101.4375 C187.088545,101.979169 187.911453,102.25 188.921875,102.25 C190.58855,102.25 191.89062,101.666673 192.828125,100.5 L195.234375,103.34375 C194.578122,104.250005 193.648444,104.971351 192.445312,105.507812 C191.242181,106.044274 189.947924,106.3125 188.5625,106.3125 Z M187.96875,92.84375 C186.427076,92.84375 185.510418,93.8645731 185.21875,95.90625 L190.53125,95.90625 L190.53125,95.5 C190.552083,94.6562458 190.338544,94.0026065 189.890625,93.5390625 C189.442706,93.0755185 188.802087,92.84375 187.96875,92.84375 Z M204.34375,99.734375 L207.015625,89.09375 L212.5625,89.09375 L207.046875,106 L201.671875,106 L196.15625,89.09375 L201.71875,89.09375 L204.34375,99.734375 Z M222.109375,106.3125 C219.515612,106.3125 217.416675,105.53907 215.8125,103.992188 C214.208325,102.445305 213.40625,100.432304 213.40625,97.953125 L213.40625,97.515625 C213.40625,95.7864497 213.726559,94.2604233 214.367188,92.9375 C215.007816,91.6145767 215.942702,90.5911495 217.171875,89.8671875 C218.401048,89.1432255 219.859367,88.78125 221.546875,88.78125 C223.921887,88.78125 225.796868,89.5182218 227.171875,90.9921875 C228.546882,92.4661532 229.234375,94.5208202 229.234375,97.15625 L229.234375,99.203125 L218.765625,99.203125 C218.953126,100.151046 219.36458,100.895831 220,101.4375 C220.63542,101.979169 221.458328,102.25 222.46875,102.25 C224.135425,102.25 225.437495,101.666673 226.375,100.5 L228.78125,103.34375 C228.124997,104.250005 227.195319,104.971351 225.992188,105.507812 C224.789056,106.044274 223.494799,106.3125 222.109375,106.3125 Z M221.515625,92.84375 C219.973951,92.84375 219.057293,93.8645731 218.765625,95.90625 L224.078125,95.90625 L224.078125,95.5 C224.098958,94.6562458 223.885419,94.0026065 223.4375,93.5390625 C222.989581,93.0755185 222.348962,92.84375 221.515625,92.84375 Z M236.90625,106 L231.625,106 L231.625,82 L236.90625,82 L236.90625,106 Z M239.484375,97.390625 C239.484375,95.7031166 239.812497,94.2005274 240.46875,92.8828125 C241.125003,91.5650976 242.067702,90.5520869 243.296875,89.84375 C244.526048,89.1354131 245.968742,88.78125 247.625,88.78125 C250.156263,88.78125 252.151034,89.5650963 253.609375,91.1328125 C255.067716,92.7005287 255.796875,94.8333198 255.796875,97.53125 L255.796875,97.71875 C255.796875,100.35418 255.065111,102.445305 253.601562,103.992188 C252.138014,105.53907 250.156262,106.3125 247.65625,106.3125 C245.249988,106.3125 243.317716,105.591153 241.859375,104.148438 C240.401034,102.705722 239.614584,100.750012 239.5,98.28125 L239.484375,97.390625 Z M244.75,97.71875 C244.75,99.2812578 244.994789,100.42708 245.484375,101.15625 C245.973961,101.88542 246.697912,102.25 247.65625,102.25 C249.531259,102.25 250.489583,100.807306 250.53125,97.921875 L250.53125,97.390625 C250.53125,94.3593598 249.56251,92.84375 247.625,92.84375 C245.864575,92.84375 244.911459,94.1510286 244.765625,96.765625 L244.75,97.71875 Z M273.8125,97.671875 C273.8125,100.296888 273.22136,102.393221 272.039062,103.960938 C270.856765,105.528654 269.260427,106.3125 267.25,106.3125 C265.697909,106.3125 264.42188,105.744797 263.421875,104.609375 L263.421875,112.5 L258.15625,112.5 L258.15625,89.09375 L263.078125,89.09375 L263.234375,90.65625 C264.244797,89.4062438 265.572908,88.78125 267.21875,88.78125 C269.302094,88.78125 270.921869,89.5494715 272.078125,91.0859375 C273.234381,92.6224035 273.8125,94.7343616 273.8125,97.421875 L273.8125,97.671875 Z M268.546875,97.34375 C268.546875,94.343735 267.671884,92.84375 265.921875,92.84375 C264.671869,92.84375 263.838544,93.2916622 263.421875,94.1875 L263.421875,100.84375 C263.880211,101.781255 264.723952,102.25 265.953125,102.25 C267.630217,102.25 268.494791,100.802098 268.546875,97.90625 L268.546875,97.34375 Z M284.3125,106.3125 C281.718737,106.3125 279.6198,105.53907 278.015625,103.992188 C276.41145,102.445305 275.609375,100.432304 275.609375,97.953125 L275.609375,97.515625 C275.609375,95.7864497 275.929684,94.2604233 276.570312,92.9375 C277.210941,91.6145767 278.145827,90.5911495 279.375,89.8671875 C280.604173,89.1432255 282.062492,88.78125 283.75,88.78125 C286.125012,88.78125 287.999993,89.5182218 289.375,90.9921875 C290.750007,92.4661532 291.4375,94.5208202 291.4375,97.15625 L291.4375,99.203125 L280.96875,99.203125 C281.156251,100.151046 281.567705,100.895831 282.203125,101.4375 C282.838545,101.979169 283.661453,102.25 284.671875,102.25 C286.33855,102.25 287.64062,101.666673 288.578125,100.5 L290.984375,103.34375 C290.328122,104.250005 289.398444,104.971351 288.195312,105.507812 C286.992181,106.044274 285.697924,106.3125 284.3125,106.3125 Z M283.71875,92.84375 C282.177076,92.84375 281.260418,93.8645731 280.96875,95.90625 L286.28125,95.90625 L286.28125,95.5 C286.302083,94.6562458 286.088544,94.0026065 285.640625,93.5390625 C285.192706,93.0755185 284.552088,92.84375 283.71875,92.84375 Z M303.78125,93.859375 L302.046875,93.734375 C300.390617,93.734375 299.328127,94.2552031 298.859375,95.296875 L298.859375,106 L293.59375,106 L293.59375,89.09375 L298.53125,89.09375 L298.703125,91.265625 C299.588546,89.6093667 300.822909,88.78125 302.40625,88.78125 C302.968753,88.78125 303.458331,88.8437494 303.875,88.96875 L303.78125,93.859375 Z M304.828125,112.125 L302.171875,110.875 L302.703125,109.8125 C303.432295,108.458327 303.8125,107.166673 303.84375,105.9375 L303.84375,102.03125 L308.0625,102.03125 L308.046875,105.421875 C308.036458,106.619798 307.72917,107.838535 307.125,109.078125 C306.52083,110.317715 305.755213,111.333329 304.828125,112.125 Z M334.140625,96.9375 L325.296875,96.9375 L325.296875,106 L319.8125,106 L319.8125,83.25 L335.03125,83.25 L335.03125,87.484375 L325.296875,87.484375 L325.296875,92.71875 L334.140625,92.71875 L334.140625,96.9375 Z M336.078125,97.390625 C336.078125,95.7031166 336.406247,94.2005274 337.0625,92.8828125 C337.718753,91.5650976 338.661452,90.5520869 339.890625,89.84375 C341.119798,89.1354131 342.562492,88.78125 344.21875,88.78125 C346.750013,88.78125 348.744784,89.5650963 350.203125,91.1328125 C351.661466,92.7005287 352.390625,94.8333198 352.390625,97.53125 L352.390625,97.71875 C352.390625,100.35418 351.658861,102.445305 350.195312,103.992188 C348.731764,105.53907 346.750013,106.3125 344.25,106.3125 C341.843738,106.3125 339.911466,105.591153 338.453125,104.148438 C336.994784,102.705722 336.208334,100.750012 336.09375,98.28125 L336.078125,97.390625 Z M341.34375,97.71875 C341.34375,99.2812578 341.588539,100.42708 342.078125,101.15625 C342.567711,101.88542 343.291662,102.25 344.25,102.25 C346.125009,102.25 347.083333,100.807306 347.125,97.921875 L347.125,97.390625 C347.125,94.3593598 346.15626,92.84375 344.21875,92.84375 C342.458325,92.84375 341.505209,94.1510286 341.359375,96.765625 L341.34375,97.71875 Z M364.78125,104.171875 C363.666661,105.598965 362.161468,106.3125 360.265625,106.3125 C358.411449,106.3125 357.007817,105.773443 356.054688,104.695312 C355.101558,103.617182 354.625,102.067718 354.625,100.046875 L354.625,89.09375 L359.890625,89.09375 L359.890625,100.078125 C359.890625,101.526049 360.593743,102.25 362,102.25 C363.208339,102.25 364.067706,101.817713 364.578125,100.953125 L364.578125,89.09375 L369.875,89.09375 L369.875,106 L364.9375,106 L364.78125,104.171875 Z M377.59375,89.09375 L377.765625,91.078125 C378.932298,89.5468673 380.541656,88.78125 382.59375,88.78125 C384.354175,88.78125 385.669266,89.3072864 386.539062,90.359375 C387.408859,91.4114636 387.859375,92.9947811 387.890625,95.109375 L387.890625,106 L382.609375,106 L382.609375,95.328125 C382.609375,94.4739541 382.437502,93.8463562 382.09375,93.4453125 C381.749998,93.0442688 381.125005,92.84375 380.21875,92.84375 C379.187495,92.84375 378.421877,93.2499959 377.921875,94.0625 L377.921875,106 L372.65625,106 L372.65625,89.09375 L377.59375,89.09375 Z M390.140625,97.421875 C390.140625,94.7447783 390.718744,92.6354244 391.875,91.09375 C393.031256,89.5520756 394.645823,88.78125 396.71875,88.78125 C398.229174,88.78125 399.499995,89.3749941 400.53125,90.5625 L400.53125,82 L405.8125,82 L405.8125,106 L401.078125,106 L400.8125,104.1875 C399.729161,105.604174 398.354175,106.3125 396.6875,106.3125 C394.677073,106.3125 393.083339,105.541674 391.90625,104 C390.729161,102.458326 390.140625,100.265639 390.140625,97.421875 Z M395.40625,97.75 C395.40625,100.750015 396.281241,102.25 398.03125,102.25 C399.197923,102.25 400.031247,101.760422 400.53125,100.78125 L400.53125,94.34375 C400.052081,93.343745 399.229173,92.84375 398.0625,92.84375 C396.437492,92.84375 395.557292,94.1562369 395.421875,96.78125 L395.40625,97.75 Z M416.984375,106.3125 C414.390612,106.3125 412.291675,105.53907 410.6875,103.992188 C409.083325,102.445305 408.28125,100.432304 408.28125,97.953125 L408.28125,97.515625 C408.28125,95.7864497 408.601559,94.2604233 409.242188,92.9375 C409.882816,91.6145767 410.817702,90.5911495 412.046875,89.8671875 C413.276048,89.1432255 414.734367,88.78125 416.421875,88.78125 C418.796887,88.78125 420.671868,89.5182218 422.046875,90.9921875 C423.421882,92.4661532 424.109375,94.5208202 424.109375,97.15625 L424.109375,99.203125 L413.640625,99.203125 C413.828126,100.151046 414.23958,100.895831 414.875,101.4375 C415.51042,101.979169 416.333328,102.25 417.34375,102.25 C419.010425,102.25 420.312495,101.666673 421.25,100.5 L423.65625,103.34375 C422.999997,104.250005 422.070319,104.971351 420.867188,105.507812 C419.664056,106.044274 418.369799,106.3125 416.984375,106.3125 Z M416.390625,92.84375 C414.848951,92.84375 413.932293,93.8645731 413.640625,95.90625 L418.953125,95.90625 L418.953125,95.5 C418.973958,94.6562458 418.760419,94.0026065 418.3125,93.5390625 C417.864581,93.0755185 417.223963,92.84375 416.390625,92.84375 Z M436.453125,93.859375 L434.71875,93.734375 C433.062492,93.734375 432.000002,94.2552031 431.53125,95.296875 L431.53125,106 L426.265625,106 L426.265625,89.09375 L431.203125,89.09375 L431.375,91.265625 C432.260421,89.6093667 433.494784,88.78125 435.078125,88.78125 C435.640628,88.78125 436.130206,88.8437494 436.546875,88.96875 L436.453125,93.859375 Z M437.5,112.125 L434.84375,110.875 L435.375,109.8125 C436.10417,108.458327 436.484375,107.166673 436.515625,105.9375 L436.515625,102.03125 L440.734375,102.03125 L440.71875,105.421875 C440.708333,106.619798 440.401045,107.838535 439.796875,109.078125 C439.192705,110.317715 438.427088,111.333329 437.5,112.125 Z M464.21875,99.953125 C464.21875,99.1510377 463.934899,98.5260439 463.367188,98.078125 C462.799476,97.6302061 461.80209,97.1666691 460.375,96.6875 C458.94791,96.2083309 457.781255,95.7447939 456.875,95.296875 C453.927069,93.8489511 452.453125,91.8593877 452.453125,89.328125 C452.453125,88.067702 452.820309,86.955734 453.554688,85.9921875 C454.289066,85.028641 455.328118,84.2786485 456.671875,83.7421875 C458.015632,83.2057265 459.526033,82.9375 461.203125,82.9375 C462.83855,82.9375 464.304681,83.2291637 465.601562,83.8125 C466.898444,84.3958363 467.906246,85.2265571 468.625,86.3046875 C469.343754,87.3828179 469.703125,88.6145764 469.703125,90 L464.234375,90 C464.234375,89.072912 463.950524,88.3541692 463.382812,87.84375 C462.815101,87.3333308 462.04688,87.078125 461.078125,87.078125 C460.098953,87.078125 459.325524,87.2942687 458.757812,87.7265625 C458.190101,88.1588563 457.90625,88.70833 457.90625,89.375 C457.90625,89.9583363 458.218747,90.4869768 458.84375,90.9609375 C459.468753,91.4348982 460.5677,91.9244766 462.140625,92.4296875 C463.71355,92.9348984 465.005203,93.4791637 466.015625,94.0625 C468.473971,95.4791738 469.703125,97.4322792 469.703125,99.921875 C469.703125,101.911468 468.953132,103.473953 467.453125,104.609375 C465.953118,105.744797 463.895846,106.3125 461.28125,106.3125 C459.437491,106.3125 457.768237,105.981774 456.273438,105.320312 C454.778638,104.658851 453.65365,103.75261 452.898438,102.601562 C452.143225,101.450515 451.765625,100.125008 451.765625,98.625 L457.265625,98.625 C457.265625,99.8437561 457.580726,100.742185 458.210938,101.320312 C458.841149,101.89844 459.864576,102.1875 461.28125,102.1875 C462.187505,102.1875 462.903643,101.992189 463.429688,101.601562 C463.955732,101.210936 464.21875,100.661462 464.21875,99.953125 Z M478.40625,84.890625 L478.40625,89.09375 L481.1875,89.09375 L481.1875,92.75 L478.40625,92.75 L478.40625,100.484375 C478.40625,101.119795 478.520832,101.562499 478.75,101.8125 C478.979168,102.062501 479.432288,102.1875 480.109375,102.1875 C480.630211,102.1875 481.067707,102.15625 481.421875,102.09375 L481.421875,105.859375 C480.473954,106.16146 479.48438,106.3125 478.453125,106.3125 C476.640616,106.3125 475.302088,105.885421 474.4375,105.03125 C473.572912,104.177079 473.140625,102.880217 473.140625,101.140625 L473.140625,92.75 L470.984375,92.75 L470.984375,89.09375 L473.140625,89.09375 L473.140625,84.890625 L478.40625,84.890625 Z M493.328125,104.171875 C492.213536,105.598965 490.708343,106.3125 488.8125,106.3125 C486.958324,106.3125 485.554692,105.773443 484.601562,104.695312 C483.648433,103.617182 483.171875,102.067718 483.171875,100.046875 L483.171875,89.09375 L488.4375,89.09375 L488.4375,100.078125 C488.4375,101.526049 489.140618,102.25 490.546875,102.25 C491.755214,102.25 492.614581,101.817713 493.125,100.953125 L493.125,89.09375 L498.421875,89.09375 L498.421875,106 L493.484375,106 L493.328125,104.171875 Z M500.640625,97.421875 C500.640625,94.7447783 501.218744,92.6354244 502.375,91.09375 C503.531256,89.5520756 505.145823,88.78125 507.21875,88.78125 C508.729174,88.78125 509.999995,89.3749941 511.03125,90.5625 L511.03125,82 L516.3125,82 L516.3125,106 L511.578125,106 L511.3125,104.1875 C510.229161,105.604174 508.854175,106.3125 507.1875,106.3125 C505.177073,106.3125 503.583339,105.541674 502.40625,104 C501.229161,102.458326 500.640625,100.265639 500.640625,97.421875 Z M505.90625,97.75 C505.90625,100.750015 506.781241,102.25 508.53125,102.25 C509.697923,102.25 510.531247,101.760422 511.03125,100.78125 L511.03125,94.34375 C510.552081,93.343745 509.729173,92.84375 508.5625,92.84375 C506.937492,92.84375 506.057292,94.1562369 505.921875,96.78125 L505.90625,97.75 Z M527.484375,106.3125 C524.890612,106.3125 522.791675,105.53907 521.1875,103.992188 C519.583325,102.445305 518.78125,100.432304 518.78125,97.953125 L518.78125,97.515625 C518.78125,95.7864497 519.101559,94.2604233 519.742188,92.9375 C520.382816,91.6145767 521.317702,90.5911495 522.546875,89.8671875 C523.776048,89.1432255 525.234367,88.78125 526.921875,88.78125 C529.296887,88.78125 531.171868,89.5182218 532.546875,90.9921875 C533.921882,92.4661532 534.609375,94.5208202 534.609375,97.15625 L534.609375,99.203125 L524.140625,99.203125 C524.328126,100.151046 524.73958,100.895831 525.375,101.4375 C526.01042,101.979169 526.833328,102.25 527.84375,102.25 C529.510425,102.25 530.812495,101.666673 531.75,100.5 L534.15625,103.34375 C533.499997,104.250005 532.570319,104.971351 531.367188,105.507812 C530.164056,106.044274 528.869799,106.3125 527.484375,106.3125 Z M526.890625,92.84375 C525.348951,92.84375 524.432293,93.8645731 524.140625,95.90625 L529.453125,95.90625 L529.453125,95.5 C529.473958,94.6562458 529.260419,94.0026065 528.8125,93.5390625 C528.364581,93.0755185 527.723962,92.84375 526.890625,92.84375 Z M541.5625,89.09375 L541.734375,91.078125 C542.901048,89.5468673 544.510406,88.78125 546.5625,88.78125 C548.322925,88.78125 549.638016,89.3072864 550.507812,90.359375 C551.377609,91.4114636 551.828125,92.9947811 551.859375,95.109375 L551.859375,106 L546.578125,106 L546.578125,95.328125 C546.578125,94.4739541 546.406252,93.8463562 546.0625,93.4453125 C545.718748,93.0442688 545.093755,92.84375 544.1875,92.84375 C543.156245,92.84375 542.390627,93.2499959 541.890625,94.0625 L541.890625,106 L536.625,106 L536.625,89.09375 L541.5625,89.09375 Z M560.90625,84.890625 L560.90625,89.09375 L563.6875,89.09375 L563.6875,92.75 L560.90625,92.75 L560.90625,100.484375 C560.90625,101.119795 561.020832,101.562499 561.25,101.8125 C561.479168,102.062501 561.932288,102.1875 562.609375,102.1875 C563.130211,102.1875 563.567707,102.15625 563.921875,102.09375 L563.921875,105.859375 C562.973954,106.16146 561.98438,106.3125 560.953125,106.3125 C559.140616,106.3125 557.802088,105.885421 556.9375,105.03125 C556.072912,104.177079 555.640625,102.880217 555.640625,101.140625 L555.640625,92.75 L553.484375,92.75 L553.484375,89.09375 L555.640625,89.09375 L555.640625,84.890625 L560.90625,84.890625 Z" id="Hi.-My-name-is-Phil." fill-opacity="0.7"></path>
                </g>
            </g>
        </g>
    </g>
</svg>